# xmcd
#
# Track frame offsets: 
#        150
#        10285
#        22655
#        33125
#        42745
#        53137
#        64022
#        77685
#        91715
#        104400
#        116607
#        128052
#
# Disc length: 1844 seconds
#
# Revision: 3
# Processed by: cddbd v1.5.2PL0 Copyright (c) Steve Scherf et al.
# Submitted via: ExactAudioCopy v0.95b4
#
DISCID=8b07320c
DTITLE=Various Artist - The Country Collection - Disc 3
DYEAR=1997
DGENRE=Country
TTITLE0=Jimmie Rodgers - Oh, Oh, I'm Falling In Love Again
TTITLE1=Jeanne Pruett - Satin Sheets
TTITLE2=George Hamilton - Abilene
TTITLE3=The Louvin Brothers - I Don't Believe You've Met My Baby
TTITLE4=Faron Young - Hello Walls
TTITLE5=Ferlin Husky - Wings Of A Dove
TTITLE6=Jimmy Dean - Big Bad John
TTITLE7=Jeannie Seeley - Don't Touch Me
TTITLE8=Sanford Clark - The Fool
TTITLE9=Hank Thompson - The Wild Side Of Life
TTITLE10=Kitty Wells - It Wasn't God Who Made Honky Tonk Angels
TTITLE11=Dave Dudley - Six Days On The Road
EXTD=
EXTT0=
EXTT1=
EXTT2=
EXTT3=
EXTT4=
EXTT5=
EXTT6=
EXTT7=
EXTT8=
EXTT9=
EXTT10=
EXTT11=
PLAYORDER=
